PathFileType  4	(X/Y/Z) C:\Users\antoi\Documents\MyRepositories\mobilecap\ResultsAnalysis
DataRate	CameraRate	NumFrames	NumMarkers	Units	OrigDataRate	OrigDataStartFrame	OrigNumFrames
100.0	100.0	4	51	mm	100.0	173	197
Frame#	Time	r_knee			r_shank_antsup			r_ankle			r_calc			r_5meta			r_toe			L_knee			L_shank_antsup			L_ankle			L_calc			L_5meta			L_toe			r_sh2			r_sh3			r_sh4			L_sh2			L_sh3			r_thigh1			r_thigh2			r_thigh3			r_thigh4			r_thigh5			L_thigh1			L_thigh2			L_thigh3			L_thigh4			r.ASIS			r.PSIS			L.ASIS			L.PSIS			C7			R_Shoulder			L_Shoulder			R_Sternum			L_Sternum			R_humerus			R_elbow_med			R_elbow_lat			R_forearm			R_wrist_radius			R_wrist_ulna			L_humerus			L_elbow_med			L_elbow_lat			L_forearm			L_wrist_radius			L_wrist_ulna			R_HJC			L_HJC			R_HJC_reg			L_HJC_reg			
		X1	Y1	Z1	X2	Y2	Z2	X3	Y3	Z3	X4	Y4	Z4	X5	Y5	Z5	X6	Y6	Z6	X7	Y7	Z7	X8	Y8	Z8	X9	Y9	Z9	X10	Y10	Z10	X11	Y11	Z11	X12	Y12	Z12	X13	Y13	Z13	X14	Y14	Z14	X15	Y15	Z15	X16	Y16	Z16	X17	Y17	Z17	X18	Y18	Z18	X19	Y19	Z19	X20	Y20	Z20	X21	Y21	Z21	X22	Y22	Z22	X23	Y23	Z23	X24	Y24	Z24	X25	Y25	Z25	X26	Y26	Z26	X27	Y27	Z27	X28	Y28	Z28	X29	Y29	Z29	X30	Y30	Z30	X31	Y31	Z31	X32	Y32	Z32	X33	Y33	Z33	X34	Y34	Z34	X35	Y35	Z35	X36	Y36	Z36	X37	Y37	Z37	X38	Y38	Z38	X39	Y39	Z39	X40	Y40	Z40	X41	Y41	Z41	X42	Y42	Z42	X43	Y43	Z43	X44	Y44	Z44	X45	Y45	Z45	X46	Y46	Z46	X47	Y47	Z47	X48	Y48	Z48	X49	Y49	Z49	X50	Y50	Z50	X51	Y51	Z51	

173	1.72000000	1318.96848	455.77240	-105.76360	1371.12663	412.38895	-107.37679	1430.67004	84.35188	-129.78768	1395.05381	43.40709	-178.78246	1547.22619	72.31031	-97.58887	1581.95074	114.35073	-145.14962	1048.66817	466.65134	-358.49325	1049.49627	375.64894	-343.45911	870.16698	116.07425	-345.03936	801.38755	94.84485	-307.90067	959.70513	40.23941	-356.08120	1003.16384	46.93778	-294.75757	1393.21535	302.34437	-102.23505	1299.24666	398.49830	-83.55392	1312.83081	282.14555	-86.62039	986.59870	421.43623	-387.90868	928.88314	313.13032	-396.58241	1277.51338	699.18387	-52.17730	1316.40287	594.50368	-71.90485	1263.99520	550.71151	-74.16701	1171.73159	660.06265	-65.67627	1214.14292	557.85377	-96.64603	1188.02643	708.06971	-414.96257	1148.13367	581.30977	-382.35443	1081.18442	738.81226	-420.83412	1038.62904	619.56766	-367.70484	1278.44426	890.53799	-124.20782	1069.34277	934.04743	-190.45717	1277.47184	885.29694	-346.35485	1074.28265	937.69714	-271.43104	1195.85541	1353.37168	-304.38522	1255.48778	1355.22806	-153.36144	1239.63965	1283.48091	-431.04695	1317.89555	1286.49639	-267.13314	1313.46814	1275.59197	-304.93786	1256.35718	1252.94992	-67.29558	1117.30135	1080.44064	-35.57838	1160.05790	1087.65937	15.78708	1212.39638	1009.08793	33.55017	1233.10172	865.55846	49.03625	1208.64138	869.79712	77.93711	1239.19146	1169.61727	-481.95470	1164.14074	960.35355	-439.27823	1199.39128	969.64617	-496.09592	1255.99319	879.01049	-494.07782	1286.87014	755.84281	-469.41089	1256.33735	747.70387	-494.44140	1190.36582	809.43623	-126.32463	1186.01525	809.69603	-333.78369	1199.05905	819.70483	-162.30160	1207.98130	826.29617	-308.54527	
174	1.73000000	1331.98334	454.99342	-105.67101	1384.21542	410.83226	-108.25175	1435.84238	82.18493	-130.97829	1397.09737	44.21750	-179.03850	1551.48549	65.37827	-99.59258	1587.88450	105.69083	-147.62876	1059.28616	466.18504	-358.55082	1058.34468	374.78657	-343.97115	873.44825	119.06061	-345.78820	804.05554	99.83755	-308.42726	960.75142	40.02678	-356.23237	1004.30279	46.02670	-295.03948	1403.94839	300.24087	-103.27727	1312.33959	398.33899	-83.28834	1323.54834	281.68507	-86.23241	996.60977	422.38251	-387.74566	935.90727	315.58800	-396.47630	1291.39982	698.39170	-51.87865	1329.67719	593.66807	-71.75066	1277.40590	549.98100	-74.14977	1185.52833	659.60389	-65.05668	1227.26440	557.35572	-96.27438	1199.79136	706.94123	-414.60016	1159.65117	580.08875	-382.13042	1092.82298	738.28695	-420.14611	1049.98216	619.05709	-367.16845	1291.80129	889.24642	-124.03209	1082.21837	932.96246	-188.97727	1290.30726	884.15291	-346.30009	1086.91740	936.50946	-269.99187	1206.28370	1353.78938	-299.02974	1266.42867	1353.42857	-147.99524	1250.37804	1285.77260	-426.89844	1328.92475	1286.61717	-262.92811	1324.71562	1276.34302	-300.91434	1267.82800	1249.91371	-63.56923	1129.95286	1076.47351	-33.61921	1172.79645	1083.09779	17.76986	1225.42995	1004.56067	34.85746	1246.38640	860.56732	49.15921	1222.23669	864.78932	77.90642	1249.77174	1172.20087	-478.94652	1172.96862	963.34781	-437.73662	1208.26168	972.84192	-494.64920	1263.36809	881.19792	-494.16783	1292.03256	757.01104	-471.64666	1261.19038	749.71242	-496.87433	1203.79760	808.15286	-125.71145	1198.46553	808.61707	-333.15104	1212.19766	818.65465	-161.83472	1220.68664	825.06225	-308.18837	
175	1.74000000	1344.93983	454.74936	-105.29420	1397.37291	409.76987	-108.85868	1440.95618	80.54068	-131.43645	1399.00717	45.77956	-179.18291	1555.51056	58.90362	-101.35476	1593.51833	97.29208	-149.83651	1070.79760	465.59680	-358.72569	1068.06560	373.79585	-344.64018	877.29637	122.34777	-346.74553	807.24739	105.42977	-309.17983	962.00387	39.82839	-356.41808	1005.63462	45.10616	-295.38465	1414.81830	298.68474	-103.90643	1325.58519	398.65819	-82.73167	1334.49851	281.78309	-85.52075	1007.61952	423.30365	-387.72326	943.88039	318.19410	-396.60212	1305.04954	697.93609	-51.21833	1342.68157	593.12069	-71.20784	1290.43403	549.63624	-73.94715	1199.10589	659.62241	-64.39528	1240.07615	557.35872	-95.80646	1212.13739	706.04263	-414.13729	1171.82270	578.94354	-382.01903	1104.87439	737.86676	-419.43984	1061.95357	618.50043	-366.59581	1305.18040	888.29636	-123.78519	1095.20402	932.28647	-187.47252	1303.48171	883.32413	-346.17284	1099.66350	935.61505	-268.53001	1216.92586	1354.51532	-293.63732	1277.48950	1351.88385	-142.59415	1261.26615	1288.33623	-422.68117	1340.09249	1287.02445	-258.64802	1336.16698	1277.41751	-296.82759	1279.39665	1247.09808	-59.93926	1142.76034	1072.71661	-31.73519	1185.71925	1078.78066	19.67426	1238.63165	1000.26516	36.08241	1259.94322	855.91086	49.16662	1235.98731	859.96919	77.78278	1260.40263	1175.08455	-475.85136	1181.93992	966.61455	-436.22640	1217.23889	976.36167	-493.14196	1270.86653	883.77187	-494.21253	1297.41524	758.66750	-473.85929	1266.33477	752.24739	-499.25625	1217.30743	807.22109	-125.02985	1211.12459	807.86472	-332.44996	1225.44840	818.10061	-161.20444	1233.50641	824.11516	-307.67436	
176	1.75000000	1357.94424	455.16212	-104.59021	1410.55920	409.22301	-109.10153	1445.69631	79.43688	-131.25974	1400.85249	47.76015	-179.25703	1559.10415	53.21751	-102.76105	1598.56130	89.47824	-151.69098	1083.32793	464.83831	-359.04020	1078.76371	372.68081	-345.49065	881.76476	125.98106	-347.88439	811.06211	111.68121	-310.15580	963.42984	39.68222	-356.61976	1007.17002	44.20910	-295.79960	1425.70796	297.71219	-104.08913	1338.93637	399.54852	-81.83950	1345.52611	282.52725	-84.44627	1019.67860	424.17122	-387.86552	952.92439	320.92100	-396.98812	1318.40823	697.99596	-50.16743	1355.50932	593.07279	-70.24799	1303.18811	549.85677	-73.46902	1212.44282	660.18492	-63.64574	1252.69760	557.92737	-95.16703	1224.98972	705.39569	-413.56819	1184.66132	577.92770	-382.01005	1117.32723	737.53890	-418.70481	1074.63646	617.79879	-365.97853	1318.48846	887.85459	-123.44691	1108.22693	932.07970	-186.02892	1316.79812	882.83297	-345.95048	1112.47899	935.05843	-267.12678	1227.76512	1355.59552	-288.24779	1288.63119	1350.67107	-137.20079	1272.30177	1291.22191	-418.41023	1351.34895	1287.77625	-254.30576	1347.78203	1278.87499	-292.68635	1291.05894	1244.59897	-56.40884	1155.73252	1069.20829	-29.97215	1198.79472	1074.80931	21.47323	1251.97828	996.31240	37.19362	1273.81459	851.76588	49.02412	1249.87708	855.47577	77.54433	1271.02249	1178.33549	-472.69333	1191.01746	970.22316	-434.68756	1226.28781	980.24401	-491.57870	1278.47308	886.81166	-494.21382	1303.00643	760.89106	-475.99592	1271.76632	755.40230	-501.51801	1230.79948	806.79158	-124.23780	1223.90875	807.44363	-331.63997	1238.68969	818.11471	-160.40561	1246.37531	823.49841	-306.99444	
